<?xml version="1.0" ?><!DOCTYPE svg  PUBLIC '-//W3C//DTD SVG 1.1//EN'  'http://www.w3.org/Graphics/SVG/1.1/DTD/svg11.dtd'><svg enable-background="new 0 0 24 24" height="24px" id="Layer_1" version="1.1" viewBox="0 0 24 24" width="24px" xml:space="preserve" xmlns="http://www.w3.org/2000/svg" xmlns:xlink="http://www.w3.org/1999/xlink"><path d="M23,9h-3V5c0-0.6-0.4-1-1-1H1C0.4,4,0,4.4,0,5v13c0,0.6,0.4,1,1,1h8v2H6c-0.6,0-1,0.4-1,1v2h18c0.6,0,1-0.4,1-1V10  C24,9.4,23.6,9,23,9z M14,23H6v-1h8V23z M14,21h-3v-2h3V21z M14,17H2v-1h12V17z M14,10v5H2V6h16v3h-3C14.4,9,14,9.4,14,10z M22,22  h-6v-1h6V22z M22,20h-6v-7h6V20z M22,12h-6v-1h6V12z"/></svg>